<?xml version="1.0" encoding="UTF-8"?>
<svg xmlns="http://www.w3.org/2000/svg" width="1254" height="1254" viewBox="0 0 1254 1254">
  <title>Transparent cutout logo</title>
  <path d="M 1111.000 616.000 C 1111.000 882.477 894.977 1098.500 628.500 1098.500 C 362.023 1098.500 146.000 882.477 146.000 616.000 C 146.000 349.523 362.023 133.500 628.500 133.500 C 894.977 133.500 1111.000 349.523 1111.000 616.000 Z M 843.00 792.00 L 845.00 790.00 L 911.00 790.00 L 924.00 796.00 L 933.00 806.00 L 936.00 815.00 L 935.00 833.00 L 929.00 847.00 L 917.00 861.00 L 910.00 866.00 L 900.00 871.00 L 893.00 873.00 L 879.00 874.00 L 878.00 873.00 L 873.00 873.00 L 863.00 869.00 L 853.00 859.00 L 850.00 852.00 L 850.00 846.00 L 849.00 845.00 L 851.00 830.00 L 859.00 815.00 L 862.00 812.00 L 887.00 812.00 L 888.00 813.00 L 880.00 822.00 L 876.00 830.00 L 873.00 841.00 L 873.00 848.00 L 875.00 855.00 L 878.00 859.00 L 885.00 862.00 L 891.00 861.00 L 895.00 859.00 L 902.00 852.00 L 906.00 846.00 L 912.00 829.00 L 911.00 818.00 L 908.00 812.00 L 905.00 809.00 L 896.00 806.00 L 838.00 806.00 L 837.00 804.00 L 839.00 802.00 Z M 738.00 790.00 L 803.00 790.00 L 812.00 793.00 L 817.00 796.00 L 825.00 804.00 L 829.00 813.00 L 829.00 830.00 L 828.00 834.00 L 819.00 851.00 L 804.00 865.00 L 795.00 870.00 L 786.00 873.00 L 779.00 873.00 L 778.00 874.00 L 766.00 873.00 L 755.00 868.00 L 748.00 861.00 L 743.00 850.00 L 744.00 832.00 L 749.00 820.00 L 755.00 812.00 L 779.00 812.00 L 780.00 813.00 L 770.00 828.00 L 766.00 843.00 L 767.00 852.00 L 770.00 858.00 L 774.00 861.00 L 786.00 860.00 L 791.00 857.00 L 797.00 850.00 L 802.00 841.00 L 804.00 834.00 L 804.00 818.00 L 802.00 813.00 L 797.00 808.00 L 789.00 806.00 L 731.00 806.00 L 730.00 804.00 Z M 334.00 871.00 L 337.00 863.00 L 344.00 857.00 L 353.00 857.00 L 359.00 859.00 L 365.00 859.00 L 366.00 860.00 L 374.00 861.00 L 380.00 843.00 L 382.00 840.00 L 387.00 823.00 L 393.00 809.00 L 393.00 806.00 L 360.00 806.00 L 350.00 810.00 L 345.00 815.00 L 343.00 820.00 L 345.00 826.00 L 347.00 822.00 L 356.00 815.00 L 366.00 815.00 L 370.00 817.00 L 374.00 821.00 L 376.00 825.00 L 376.00 832.00 L 373.00 838.00 L 367.00 843.00 L 360.00 845.00 L 348.00 844.00 L 339.00 839.00 L 334.00 833.00 L 331.00 826.00 L 331.00 814.00 L 336.00 804.00 L 343.00 797.00 L 355.00 791.00 L 359.00 790.00 L 462.00 790.00 L 466.00 792.00 L 470.00 798.00 L 468.00 837.00 L 494.00 796.00 L 501.00 790.00 L 512.00 790.00 L 513.00 791.00 L 513.00 837.00 L 539.00 790.00 L 553.00 790.00 L 554.00 791.00 L 550.00 798.00 L 567.00 790.00 L 628.00 790.00 L 629.00 791.00 L 625.00 802.00 L 625.00 805.00 L 620.00 816.00 L 618.00 824.00 L 615.00 829.00 L 606.00 857.00 L 599.00 867.00 L 590.00 872.00 L 586.00 873.00 L 545.00 873.00 L 543.00 871.00 L 543.00 869.00 L 546.00 863.00 L 553.00 857.00 L 562.00 857.00 L 563.00 858.00 L 582.00 861.00 L 595.00 823.00 L 600.00 812.00 L 601.00 806.00 L 569.00 806.00 L 568.00 807.00 L 564.00 807.00 L 555.00 812.00 L 551.00 819.00 L 551.00 823.00 L 553.00 827.00 L 554.00 827.00 L 555.00 822.00 L 560.00 817.00 L 565.00 815.00 L 574.00 815.00 L 578.00 817.00 L 582.00 821.00 L 584.00 825.00 L 584.00 834.00 L 583.00 836.00 L 577.00 842.00 L 567.00 845.00 L 557.00 844.00 L 550.00 841.00 L 542.00 833.00 L 539.00 825.00 L 540.00 818.00 L 534.00 827.00 L 513.00 866.00 L 509.00 870.00 L 503.00 873.00 L 494.00 873.00 L 492.00 871.00 L 492.00 825.00 L 470.00 859.00 L 467.00 862.00 L 466.00 865.00 L 461.00 870.00 L 454.00 873.00 L 444.00 872.00 L 443.00 871.00 L 443.00 863.00 L 444.00 862.00 L 444.00 853.00 L 445.00 852.00 L 445.00 843.00 L 446.00 842.00 L 446.00 832.00 L 447.00 831.00 L 447.00 821.00 L 448.00 820.00 L 449.00 807.00 L 448.00 806.00 L 417.00 806.00 L 415.00 808.00 L 414.00 813.00 L 409.00 824.00 L 398.00 857.00 L 395.00 862.00 L 388.00 869.00 L 382.00 872.00 L 378.00 872.00 L 377.00 873.00 L 337.00 873.00 Z M 712.00 790.00 L 716.00 792.00 L 721.00 797.00 L 723.00 801.00 L 723.00 809.00 L 718.00 816.00 L 712.00 819.00 L 700.00 818.00 L 693.00 812.00 L 691.00 807.00 L 691.00 802.00 L 686.00 802.00 L 678.00 805.00 L 670.00 811.00 L 664.00 818.00 L 659.00 827.00 L 657.00 835.00 L 657.00 842.00 L 660.00 851.00 L 666.00 857.00 L 678.00 861.00 L 684.00 861.00 L 685.00 860.00 L 692.00 838.00 L 696.00 832.00 L 716.00 832.00 L 717.00 833.00 L 708.00 860.00 L 706.00 863.00 L 704.00 872.00 L 701.00 878.00 L 695.00 884.00 L 691.00 886.00 L 679.00 887.00 L 676.00 885.00 L 676.00 883.00 L 680.00 873.00 L 665.00 872.00 L 653.00 869.00 L 645.00 865.00 L 635.00 855.00 L 631.00 841.00 L 631.00 837.00 L 634.00 826.00 L 642.00 813.00 L 650.00 805.00 L 657.00 800.00 L 669.00 794.00 L 682.00 790.00 L 694.00 790.00 L 695.00 789.00 Z M 757.00 556.00 L 759.00 555.00 L 778.00 561.00 L 789.00 563.00 L 810.00 570.00 L 824.00 573.00 L 834.00 577.00 L 855.00 582.00 L 869.00 587.00 L 883.00 590.00 L 886.00 592.00 L 897.00 594.00 L 923.00 602.00 L 924.00 604.00 L 919.00 613.00 L 916.00 622.00 L 899.00 657.00 L 894.00 670.00 L 892.00 672.00 L 885.00 671.00 L 882.00 669.00 L 879.00 669.00 L 851.00 660.00 L 833.00 656.00 L 823.00 652.00 L 820.00 652.00 L 813.00 649.00 L 785.00 642.00 L 761.00 634.00 L 732.00 627.00 L 730.00 624.00 L 736.00 611.00 L 746.00 583.00 L 750.00 576.00 Z M 740.00 471.00 L 741.00 472.00 L 739.00 476.00 L 736.00 492.00 L 733.00 500.00 L 733.00 504.00 L 729.00 516.00 L 709.00 597.00 L 703.00 615.00 L 701.00 618.00 L 701.00 621.00 L 696.00 632.00 L 690.00 650.00 L 690.00 653.00 L 688.00 656.00 L 675.00 695.00 L 674.00 696.00 L 669.00 696.00 L 665.00 694.00 L 646.00 690.00 L 632.00 685.00 L 621.00 683.00 L 617.00 681.00 L 610.00 680.00 L 594.00 675.00 L 592.00 673.00 L 583.00 644.00 L 581.00 641.00 L 581.00 638.00 L 575.00 620.00 L 573.00 617.00 L 573.00 614.00 L 568.00 602.00 L 567.00 596.00 L 543.00 588.00 L 522.00 583.00 L 516.00 580.00 L 543.00 518.00 L 548.00 518.00 L 552.00 520.00 L 556.00 520.00 L 563.00 523.00 L 566.00 523.00 L 570.00 525.00 L 573.00 525.00 L 577.00 527.00 L 580.00 527.00 L 584.00 529.00 L 615.00 537.00 L 622.00 540.00 L 633.00 542.00 L 643.00 546.00 L 653.00 548.00 L 655.00 543.00 L 660.00 515.00 L 671.00 471.00 Z M 500.00 394.00 L 502.00 396.00 L 499.00 402.00 L 497.00 410.00 L 482.00 446.00 L 480.00 454.00 L 470.00 478.00 L 459.00 511.00 L 441.00 556.00 L 441.00 559.00 L 438.00 564.00 L 434.00 577.00 L 420.00 610.00 L 419.00 615.00 L 416.00 620.00 L 409.00 640.00 L 403.00 652.00 L 397.00 669.00 L 395.00 671.00 L 390.00 670.00 L 374.00 664.00 L 371.00 664.00 L 361.00 660.00 L 354.00 659.00 L 351.00 657.00 L 348.00 657.00 L 333.00 652.00 L 332.00 651.00 L 333.00 647.00 L 347.00 623.00 L 347.00 621.00 L 352.00 614.00 L 377.00 566.00 L 389.00 546.00 L 395.00 533.00 L 407.00 513.00 L 453.00 423.00 L 461.00 410.00 L 472.00 387.00 L 475.00 386.00 Z M 777.00 276.00 L 779.00 278.00 L 777.00 283.00 L 774.00 302.00 L 768.00 326.00 L 763.00 355.00 L 759.00 369.00 L 751.00 413.00 L 747.00 427.00 L 747.00 432.00 L 744.00 442.00 L 742.00 457.00 L 734.00 459.00 L 733.00 458.00 L 728.00 458.00 L 727.00 459.00 L 722.00 459.00 L 721.00 458.00 L 710.00 458.00 L 709.00 459.00 L 673.00 458.00 L 672.00 457.00 L 673.00 448.00 L 681.00 417.00 L 682.00 408.00 L 685.00 399.00 L 685.00 395.00 L 688.00 385.00 L 691.00 367.00 L 693.00 362.00 L 693.00 358.00 L 696.00 350.00 L 697.00 341.00 L 701.00 328.00 L 702.00 319.00 L 706.00 306.00 L 706.00 302.00 L 712.00 278.00 L 714.00 276.00 Z" fill="#000000" fill-rule="evenodd" clip-rule="evenodd"/>
</svg>
